Coordinates
version=1
nRows=19
nColumns=24
inDegrees=yes

Units are S.I. units (second, meters, Newtons, ...)
Angles are in degrees.

endheader
time	pelvis_tilt	pelvis_list	pelvis_rotation	pelvis_tx	pelvis_ty	pelvis_tz	hip_flexion_r	hip_adduction_r	hip_rotation_r	knee_angle_r	ankle_angle_r	subtalar_angle_r	mtp_angle_r	hip_flexion_l	hip_adduction_l	hip_rotation_l	knee_angle_l	ankle_angle_l	subtalar_angle_l	mtp_angle_l	lumbar_extension	lumbar_bending	lumbar_rotation
      5.08000000	     -1.56669393	      8.90758292	    -12.49587290	     -0.51166136	      1.05187992	      0.05787499	     12.41834260	     -9.91495488	      1.11591465	    -63.77243056	    -31.36893545	    -44.08936179	      0.00000000	      9.39657867	     12.71773940	     -3.52989881	     -9.26189992	      7.65745338	    -16.23287774	      0.00000000	     -3.20778475	     -8.91694487	     -1.10582087
      5.09000000	     -1.97934446	      8.03208328	    -12.46908352	     -0.49549311	      1.05462648	      0.05854858	     14.28315518	     -8.38304529	      1.78158979	    -64.01436857	    -27.98514243	    -43.44678550	      0.00000000	      7.93046203	     12.00887965	     -2.39055806	     -7.94674910	      7.25992552	    -17.01302899	      0.00000000	     -3.03035742	     -7.51750157	     -2.07834930
      5.10000000	     -2.37776468	      7.15005443	    -12.29494071	     -0.47951988	      1.05717672	      0.05913910	     16.03837144	     -6.90868618	      2.14246498	    -63.95969782	    -24.78460337	    -42.49339165	      0.00000000	      6.44835255	     11.27733866	     -1.18184782	     -6.61590892	      6.75974228	    -17.80755205	      0.00000000	     -2.94625113	     -6.14398998	     -3.14690967
      5.11000000	     -2.73237568	      6.31759141	    -12.00973939	     -0.46374645	      1.05947622	      0.05970941	     17.68809963	     -5.56390150	      2.26135189	    -63.63497178	    -21.82662942	    -41.40520064	      0.00000000	      4.94657861	     10.57225904	     -0.03151879	     -5.27663123	      6.20096484	    -18.53643727	      0.00000000	     -2.96682407	     -4.87769261	     -4.27582239
      5.12000000	     -3.02164188	      5.57833582	    -11.65151635	     -0.44817441	      1.06147817	      0.06030832	     19.23773738	     -4.39549939	      2.21098016	    -63.06504724	    -19.07311804	    -40.28120030	      0.00000000	      3.42282921	      9.93836978	      0.98030499	     -3.93867618	      5.60812949	    -19.15435904	      0.00000000	     -3.09535378	     -3.77613965	     -5.42754788
      5.13000000	     -3.23130117	      4.95905646	    -11.23772135	     -0.43277505	      1.06317044	      0.06100505	     20.67425882	     -3.42282393	      2.04542229	    -62.25133315	    -16.53408980	    -39.23255842	      0.00000000	      1.87638338	      9.40656870	      1.75864874	     -2.61884157	      5.05987745	    -19.57253264	      0.00000000	     -3.33092532	     -2.88836561	     -6.57640545
      5.14000000	     -3.39629122	      4.47621738	    -10.81191441	     -0.41752166	      1.06449077	      0.06182242	     22.04504858	     -2.64501773	      1.82765647	    -61.20992993	    -14.08127120	    -38.12399272	      0.00000000	      0.34100130	      8.99499968	      2.31058264	     -1.31105545	      4.44262135	    -19.87123293	      0.00000000	     -3.61962031	     -2.20768357	     -7.66606997
      5.15000000	     -3.50852997	      4.13487950	    -10.36749836	     -0.40236924	      1.06544791	      0.06275278	     23.32886193	     -2.07142832	      1.56484508	    -59.93831320	    -11.73902695	    -37.00003936	      0.00000000	     -1.18800125	      8.71990309	      2.63907139	     -0.03670907	      3.82424225	    -20.02054129	      0.00000000	     -3.96222282	     -1.74105375	     -8.71849282
      5.16000000	     -3.56576507	      3.92050393	     -9.89309250	     -0.38727634	      1.06605997	      0.06377238	     24.50270389	     -1.68689172	      1.26261078	    -58.42757221	     -9.54747024	    -35.88130284	      0.00000000	     -2.71276674	      8.57423825	      2.76086183	      1.18334552	      3.25719817	    -20.00661332	      0.00000000	     -4.35758307	     -1.46962439	     -9.75106176
      5.17000000	     -3.61153767	      3.81730136	     -9.39305156	     -0.37219204	      1.06629491	      0.06484706	     25.59886656	     -1.47459353	      0.91198984	    -56.67643452	     -7.49674568	    -34.68722276	      0.00000000	     -4.19985862	      8.53723356	      2.76076238	      2.34965914	      2.71415366	    -19.86960962	      0.00000000	     -4.74764643	     -1.34952679	    -10.73945314
      5.18000000	     -3.62189451	      3.79448203	     -8.87914624	     -0.35707789	      1.06620325	      0.06597173	     26.57214807	     -1.40758280	      0.50516942	    -54.67467219	     -5.64967451	    -33.46752252	      0.00000000	     -5.67580840	      8.58239743	      2.64940302	      3.44439297	      2.22475908	    -19.63331091	      0.00000000	     -5.16559289	     -1.34730320	    -11.70111318
      5.19000000	     -3.64121083	      3.82737136	     -8.34127035	     -0.34190400	      1.06576826	      0.06709934	     27.44810579	     -1.45299981	      0.03451691	    -52.41031759	     -3.97283190	    -32.14747790	      0.00000000	     -7.09736451	      8.67311960	      2.52091186	      4.45507847	      1.78054982	    -19.34012356	      0.00000000	     -5.55615464	     -1.41565159	    -12.61532666
      5.20000000	     -3.68630761	      3.89182417	     -7.78933541	     -0.32663421	      1.06499657	      0.06823065	     28.22943755	     -1.58148362	     -0.51103519	    -49.87799263	     -2.40125694	    -30.65068312	      0.00000000	     -8.44602826	      8.77680039	      2.42262507	      5.36668461	      1.37862364	    -19.04260771	      0.00000000	     -5.89905577	     -1.52469092	    -13.47160377
      5.21000000	     -3.78278353	      3.97327290	     -7.22741561	     -0.31124312	      1.06388897	      0.06936050	     28.92891862	     -1.76718517	     -1.13179250	    -47.07132928	     -0.86641234	    -28.89364961	      0.00000000	     -9.69070448	      8.86935815	      2.39648351	      6.16414656	      1.01293411	    -18.77269666	      0.00000000	     -6.16223580	     -1.65155568	    -14.25340969
      5.22000000	     -3.93485565	      4.06311904	     -6.65880200	     -0.29569373	      1.06247066	      0.07047902	     29.53861886	     -1.99619464	     -1.83443184	    -43.98880713	      0.70827828	    -26.77269692	      0.00000000	    -10.82100426	      8.93849296	      2.46271327	      6.83136392	      0.67795896	    -18.55815639	      0.00000000	     -6.33495329	     -1.78122401	    -14.95478636
      5.23000000	     -4.14122631	      4.16599678	     -6.08518750	     -0.27997514	      1.06076884	      0.07158974	     30.05279170	     -2.26211180	     -2.61409939	    -40.64078479	      2.34008970	    -24.23341079	      0.00000000	    -11.83270836	      8.98638242	      2.63257576	      7.35931050	      0.37000501	    -18.40495098	      0.00000000	     -6.41669218	     -1.92070076	    -15.57535597
      5.24000000	     -4.39307450	      4.29467738	     -5.50508037	     -0.26407309	      1.05880268	      0.07271820	     30.46561365	     -2.56416757	     -3.46036182	    -37.05963213	      3.99312726	    -21.27909584	      0.00000000	    -12.73498981	      9.02367640	      2.91157911	      7.74932212	      0.08621415	    -18.30723683	      0.00000000	     -6.41796249	     -2.09557138	    -16.11949721
      5.25000000	     -4.65706665	      4.46905616	     -4.91824061	     -0.24797243	      1.05661423	      0.07388138	     30.75650882	     -2.91206987	     -4.36237347	    -33.29961009	      5.57208295	    -18.00318681	      0.00000000	    -13.56314887	      9.07280076	      3.28650711	      8.00155845	     -0.19264892	    -18.25078409	      0.00000000	     -6.37382732	     -2.34060248	    -16.58975909
      5.26000000	     -4.87168583	      4.69277195	     -4.32672571	     -0.23166641	      1.05428077	      0.07509192	     30.88117149	     -3.29630075	     -5.28470045	    -29.43811843	      6.92477579	    -14.60582939	      0.00000000	    -14.39681365	      9.13771280	      3.78242575	      8.13879771	     -0.41672827	    -18.17158068	      0.00000000	     -6.36439823	     -2.65906008	    -16.99283274
